
      <svg
        width="300"
        height="285"
        viewBox="0 0 300 285"
        fill="none"
        xmlns="http://www.w3.org/2000/svg"
      >
        <style>
          .header {
            font: 600 18px 'Segoe UI', Ubuntu, Sans-Serif;
            fill: #ffffff;
            animation: fadeInAnimation 0.8s ease-in-out forwards;
          }
          
    .lang-name { font: 400 11px 'Segoe UI', Ubuntu, Sans-Serif; fill: #c9cacc }
  

          
    /* Animations */
    @keyframes scaleInAnimation {
      from {
        transform: translate(-5px, 5px) scale(0);
      }
      to {
        transform: translate(-5px, 5px) scale(1);
      }
    }
    @keyframes fadeInAnimation {
      from {
        opacity: 0;
      }
      to {
        opacity: 1;
      }
    }
  
          * { animation-duration: 0s !important; animation-delay: 0s !important; }
        </style>

        undefined

        <rect
          data-testid="card-bg"
          x="0.5"
          y="0.5"
          rx="4.5"
          height="99%"
          stroke="#e4e2e2"
          width="299"
          fill="#1A2B34"
          stroke-opacity="1"
        />

        
      <g
        data-testid="card-title"
        transform="translate(25, 35)"
      >
        <g transform="translate(0, 0)">
      <text
        x="0"
        y="0"
        class="header"
        data-testid="header"
      >Subject Stats</text>
    </g>
      </g>
    

        <g
          data-testid="main-card-body"
          transform="translate(0, 55)"
        >
          
    <svg data-testid="lang-items" x="25">
      <g transform="translate(0, 0)">
    <text data-testid="lang-name" x="2" y="15" class="lang-name">Algebra</text>
    <text x="215" y="34" class="lang-name">39.46%</text>
    
    <svg width="205" x="0" y="25">
      <rect rx="5" ry="5" x="0" y="0" width="205" height="8" fill="#ddd"></rect>
      <rect
          height="8"
          fill="#f1e05a"
          rx="5" ry="5" x="0" y="0" 
          data-testid="lang-progress"
          width="39.46%"
      >
      </rect>
    </svg>
  
  </g><g transform="translate(0, 40)">
    <text data-testid="lang-name" x="2" y="15" class="lang-name">Trigonometry</text>
    <text x="215" y="34" class="lang-name">38.72%</text>
    
    <svg width="205" x="0" y="25">
      <rect rx="5" ry="5" x="0" y="0" width="205" height="8" fill="#ddd"></rect>
      <rect
          height="8"
          fill="#2b7489"
          rx="5" ry="5" x="0" y="0" 
          data-testid="lang-progress"
          width="38.72%"
      >
      </rect>
    </svg>
  
  </g><g transform="translate(0, 80)">
    <text data-testid="lang-name" x="2" y="15" class="lang-name">Calculus</text>
    <text x="215" y="34" class="lang-name">20.70%</text>
    
    <svg width="205" x="0" y="25">
      <rect rx="5" ry="5" x="0" y="0" width="205" height="8" fill="#ddd"></rect>
      <rect
          height="8"
          fill="#178600"
          rx="5" ry="5" x="0" y="0" 
          data-testid="lang-progress"
          width="20.7%"
      >
      </rect>
    </svg>
  
  </g><g transform="translate(0, 120)">
    <text data-testid="lang-name" x="2" y="15" class="lang-name">Physics</text>
    <text x="215" y="34" class="lang-name">0.93%</text>
    
    <svg width="205" x="0" y="25">
      <rect rx="5" ry="5" x="0" y="0" width="205" height="8" fill="#ddd"></rect>
      <rect
          height="8"
          fill="#b07219"
          rx="5" ry="5" x="0" y="0" 
          data-testid="lang-progress"
          width="2%"
      >
      </rect>
    </svg>
  
  </g><g transform="translate(0, 160)">
    <text data-testid="lang-name" x="2" y="15" class="lang-name">Chemistry</text>
    <text x="215" y="34" class="lang-name">0.19%</text>
    
    <svg width="205" x="0" y="25">
      <rect rx="5" ry="5" x="0" y="0" width="205" height="8" fill="#ddd"></rect>
      <rect
          height="8"
          fill="#c6538c"
          rx="5" ry="5" x="0" y="0" 
          data-testid="lang-progress"
          width="2%"
      >
      </rect>
    </svg>
  
  </g>
    </svg>
  
        </g>
      </svg>
    